<svg xmlns="http://www.w3.org/2000/svg" xmlns:xlink="http://www.w3.org/1999/xlink" width="803.75" height="688" viewBox="0 0 803.75 688">
  <defs>
    <clipPath id="clip-path">
      <rect id="Rectangle_1677" data-name="Rectangle 1677" width="803.75" height="688" transform="translate(3772 -1363)" fill="#fff"/>
    </clipPath>
    <clipPath id="clip-path-2">
      <rect id="Rectangle_47" data-name="Rectangle 47" width="702.993" height="677.318" fill="#fff"/>
    </clipPath>
  </defs>
  <g id="login" transform="translate(-3772 1363)" clip-path="url(#clip-path)">
    <g id="Group_1992" data-name="Group 1992" transform="translate(3761.86 -1510.477)">
      <g id="illustration" transform="translate(0 232.293)" clip-path="url(#clip-path-2)">
        <g id="illustration-2" data-name="illustration" transform="translate(120.719 30.319)">
          <g id="freepik--background-complete--inject-2" transform="translate(28.78 0)">
            <path id="Path_1" data-name="Path 1" d="M169.28,79.175a16.358,16.358,0,0,0-15.894,15.894,16.188,16.188,0,0,0,3.069,9.9h0l.147.22h0l11.541,15.686a2.445,2.445,0,0,0,4.047-.073l10.429-15.5a17.667,17.667,0,0,0,3.325-9.866A16.3,16.3,0,0,0,169.28,79.175Zm.379,25.931a9.267,9.267,0,1,1,6.565-2.714,9.267,9.267,0,0,1-6.565,2.714Z" transform="translate(15.895 6.261)" fill="#f9ca6d"/>
            <path id="Path_2" data-name="Path 2" d="M379.1,62.9c.954-6.883-8.766-12.544-16.065-13.131-3.484-.281-7.1.245-10.4-.9-7.14-2.445-10-11.725-16.97-14.671-5.22-2.2-11.223-.245-16.273,2.3s-10.05,5.746-15.7,6.113c-4.89.306-10.245-1.516-14.537.893-3.2,1.785-4.89,5.477-7.837,7.653s-6.651,2.58-10.233,2.775-7.336.232-10.563,1.724-5.954,4.89-5.282,8.46Z" transform="translate(53.012 -10.491)" fill="#ebebeb"/>
            <path id="Path_3" data-name="Path 3" d="M207.1,32.357c.5-3.668-4.67-6.675-8.558-6.993-1.858-.147-3.778.134-5.538-.477-3.8-1.333-5.318-6.235-9.035-7.812-2.775-1.161-5.966-.122-8.656,1.223s-5.355,3.056-8.363,3.252c-2.6.159-5.453-.807-7.739.465-1.7.954-2.592,2.922-4.169,4.083a9.915,9.915,0,0,1-5.441,1.467,15.527,15.527,0,0,0-5.624.929,4.438,4.438,0,0,0-2.812,4.5Z" transform="translate(11.432 -16.572)" fill="#f5f5f5"/>
            <path id="Path_4" data-name="Path 4" d="M131.108,82.25c.746-5.416-6.9-9.866-12.629-10.331-2.739-.22-5.587.2-8.179-.709-5.612-1.956-7.861-9.218-13.339-11.529-4.1-1.712-8.815-.183-12.788,1.809s-7.91,4.524-12.348,4.8c-3.863.245-8.045-1.223-11.431.7-2.519,1.406-3.839,4.316-6.113,6.015s-5.269,2.078-8.094,2.188A21.762,21.762,0,0,0,37.9,76.553c-2.567,1.174-4.683,3.888-4.157,6.651Z" transform="translate(-27.774 -1.118)" fill="#f5f5f5"/>
            <path id="Path_5" data-name="Path 5" d="M432.724,67.94s-.709-.183-1.968-.44a16,16,0,0,0-5.4-.147,14.745,14.745,0,0,0-7.238,3.166,15.1,15.1,0,0,0-5.1,8.118v.1l-.306,1.223-.465-1.137a16.224,16.224,0,0,0-6.113-7.409,15.722,15.722,0,0,0-7.47-2.531,20.784,20.784,0,0,0-7.336.929A6.417,6.417,0,0,1,393.185,69a15.6,15.6,0,0,1,5.5-.7,16.1,16.1,0,0,1,7.849,2.445,16.664,16.664,0,0,1,6.455,7.727h-.77v-.1a15.491,15.491,0,0,1,5.416-8.558,14.806,14.806,0,0,1,7.629-3.154,14.586,14.586,0,0,1,5.551.4,6.113,6.113,0,0,1,1.907.868Z" transform="translate(102.688 1.663)" fill="#e0e0e0"/>
            <path id="Path_6" data-name="Path 6" d="M29.885,160.863,73.654,398.475,164.7,414.98l81.572-52.486,87.245,21.065,90.472-58.049L379.694,100.1l-90.081,44.906-77.708-16.872-84.6,44.8Z" transform="translate(-29.151 13.896)" fill="#fff"/>
            <path id="Path_7" data-name="Path 7" d="M165.031,415.87,73.337,399.243l-.073-.416L29.348,160.421l98.04,12.153,84.64-44.808,77.708,16.908,90.607-45.236.147.782,44.38,225.826-.355.22-90.692,58.183-.245-.061-87-21ZM74.376,398.191l90.4,16.4,81.584-52.511.245.061,87,21,89.9-57.682L379.487,101.247,289.895,145.9h-.208l-77.5-16.835-84.579,44.784h-.159L30.864,161.79Z" transform="translate(-29.348 13.654)" fill="#e0e0e0"/>
            <path id="Path_8" data-name="Path 8" d="M36.774,165.924,78.11,391.273,161.577,403.9l81.339-54,85.411,20.332,84.628-51.141L373.1,107.007,288.543,150.2l-79.224-13.718L122.808,178.7l-38.7-5.746Z" transform="translate(-26.639 16.415)" fill="#ebebeb"/>
            <path id="Path_9" data-name="Path 9" d="M87.367,156.527l.245,84.738,291.663,74.872-14.524,9.585L89.506,254.188,87.122,376.814l-17.74-2.69,2.836-218.8Z" transform="translate(-14.744 34.04)" fill="#fafafa"/>
            <path id="Path_10" data-name="Path 10" d="M40.115,164.95l43.806,9.842-1.516,13.925L41.68,178.166Z" transform="translate(-25.42 37.55)" fill="#fafafa"/>
            <path id="Path_11" data-name="Path 11" d="M47.811,212.2l31.384-6.92-.208,15.943-28.9,6.48Z" transform="translate(-22.613 52.261)" fill="#fafafa"/>
            <path id="Path_12" data-name="Path 12" d="M56.285,256.522l18.889,1.651-.11,9.12-17.288-.562Z" transform="translate(-19.522 70.952)" fill="#fafafa"/>
            <path id="Path_13" data-name="Path 13" d="M82.381,350.392l24.183,3.656,5.587-48.782,37.974,3.863L153.756,354l16.065-10.661-.33-93.553L84.765,227.766Z" transform="translate(-10.003 60.463)" fill="#e0e0e0"/>
            <path id="Path_14" data-name="Path 14" d="M156.051,247.415l-.465,50.261-.33,35.076-8.57,5.7-.88-97.282Z" transform="translate(13.132 65.351)" fill="#fafafa"/>
            <path id="Path_15" data-name="Path 15" d="M192.736,291.045,153,282.573l-.11,11.774,27.349,5Z" transform="translate(15.716 80.454)" fill="#fafafa"/>
            <path id="Path_16" data-name="Path 16" d="M117.051,154.061l-6.406,100.314,14.4,3.692L133.165,146.2Z" transform="translate(0.306 30.711)" fill="#fafafa"/>
            <path id="Path_17" data-name="Path 17" d="M147.024,274.323l2.445-125.243,8.668,3.46-.672,43.573,90.093,26.09,21.408-86.548,16.481-9.218-26.371,98.456-20.417,76.791s-11.9-2.763-11.48-4.719S243.463,238,243.463,238l-87.391-28.34-1.577,72.011Z" transform="translate(13.576 23.502)" fill="#fafafa"/>
            <path id="Path_18" data-name="Path 18" d="M223.009,241.828l60.543,17.7,28.132-120.047-5.318-26.457L275.1,243.564l-49.772-15.282Z" transform="translate(41.292 18.611)" fill="#fafafa"/>
            <path id="Path_19" data-name="Path 19" d="M198.355,301.564l10.086-50.175,11.981,2.861-10.649,50.762Z" transform="translate(32.3 69.079)" fill="#fafafa"/>
            <path id="Path_20" data-name="Path 20" d="M296.353,197.621,271.608,319.7l21.9-13.8,21.554-80.9-3.105-21.151Z" transform="translate(59.019 49.467)" fill="#e0e0e0"/>
            <path id="Path_21" data-name="Path 21" d="M122.808,162.954l38.769,225.2L78.11,375.526,36.774,150.177Z" transform="translate(-26.639 32.162)" opacity="0.1"/>
            <path id="Path_22" data-name="Path 22" d="M140.476,143.742l8.546,3.411L360.152,231.5l-6.186-32.876L171.493,128.606Z" transform="translate(11.187 24.293)" fill="#e0e0e0"/>
            <path id="Path_23" data-name="Path 23" d="M163.2,128.606l33.6,213.416,85.411,20.332L242.427,142.323Z" transform="translate(19.477 24.293)" opacity="0.1"/>
            <path id="Path_24" data-name="Path 24" d="M437.108,386.164H320.35l6.578-6.492H440.959Z" transform="translate(76.798 115.872)" fill="#e0e0e0"/>
          </g>
          <g id="freepik--Floor--inject-2" transform="translate(23.425 548.213)">
            <path id="Path_25" data-name="Path 25" d="M555.1,418.583c0,.171-118.592.318-264.827.318s-264.851-.147-264.851-.318,118.592-.318,264.851-.318S555.1,418.387,555.1,418.583Z" transform="translate(-25.424 -418.265)" fill="#263238"/>
          </g>
          <g id="freepik--Birds--inject-2" transform="translate(87.538 32.29)">
            <path id="Path_26" data-name="Path 26" d="M157.213,104c0,.086-1.394-.477-3.986-1.051a31.787,31.787,0,0,0-11.15-.44A29.978,29.978,0,0,0,127.051,109a31.115,31.115,0,0,0-10.612,16.835v.183l-.306,1.223-.465-1.149a33.523,33.523,0,0,0-12.752-15.282,32.411,32.411,0,0,0-15.5-5.172,34.4,34.4,0,0,0-11.077,1.015,40.446,40.446,0,0,0-3.937,1.223,5.393,5.393,0,0,1,.954-.465,23.031,23.031,0,0,1,2.934-1.125,33.083,33.083,0,0,1,11.2-1.223,32.692,32.692,0,0,1,15.894,5.123,33.964,33.964,0,0,1,13.045,15.649l-.77.073v-.2a31.641,31.641,0,0,1,10.918-17.239A30.308,30.308,0,0,1,142,102.009a30.907,30.907,0,0,1,11.3.685,22.139,22.139,0,0,1,2.934.941,5.05,5.05,0,0,1,.978.367Z" transform="translate(-72.401 -17.784)" fill="#263238"/>
            <path id="Path_27" data-name="Path 27" d="M235.166,72s-.782-.22-2.213-.526a18.046,18.046,0,0,0-6.113-.171,16.383,16.383,0,0,0-8.167,3.57,17.019,17.019,0,0,0-5.771,9.169v.1l-.306,1.223-.465-1.149a18.241,18.241,0,0,0-6.908-8.35A17.789,17.789,0,0,0,196.776,73a18.925,18.925,0,0,0-6.113.5c-1.406.342-2.164.648-2.188.587s.171-.122.526-.293a11.562,11.562,0,0,1,1.577-.6,18.107,18.107,0,0,1,15,2.03,18.84,18.84,0,0,1,7.262,8.693h-.77v-.11a17.532,17.532,0,0,1,6.113-9.573,16.859,16.859,0,0,1,8.558-3.558,17.031,17.031,0,0,1,6.247.44,11.309,11.309,0,0,1,1.614.55C234.995,71.873,235.178,71.959,235.166,72Z" transform="translate(-30.063 -29.168)" fill="#263238"/>
            <path id="Path_28" data-name="Path 28" d="M172.953,40.232s-.758.88-2.14,2.445a52.568,52.568,0,0,0-5.233,7.067,51.422,51.422,0,0,0-7.764,27.5,3.2,3.2,0,0,0,0,.342h-.807A44.979,44.979,0,0,0,151.986,62.7a46.813,46.813,0,0,0-14.292-15.967,31.5,31.5,0,0,1-2.629-1.834,3.667,3.667,0,0,1,.746.367,19.314,19.314,0,0,1,2.066,1.223,41.569,41.569,0,0,1,6.859,5.489A45.309,45.309,0,0,1,157.817,77.5h-.807v-.342A50.591,50.591,0,0,1,165.1,49.34a45.383,45.383,0,0,1,5.489-6.969c.709-.782,1.333-1.308,1.724-1.687A5.3,5.3,0,0,1,172.953,40.232Z" transform="translate(-49.544 -40.232)" fill="#263238"/>
          </g>
          <g id="freepik--Buildings--inject-2" transform="translate(254.068 68.21)">
            <rect id="Rectangle_5" data-name="Rectangle 5" width="328.365" height="7.605" transform="translate(0 368.332)" fill="#e0e0e0"/>
            <path id="Path_29" data-name="Path 29" d="M196.85,344.161v-7.4h.1c19.366-.147,83.222-.245,158.938-.245l117.516.1,35.6.11,9.683.073h0l-9.683.073-35.6.11-117.516.11c-75.654,0-139.51-.11-158.876-.257l.1-.1V343.6A.878.878,0,0,1,196.85,344.161Z" transform="translate(-193.537 31.922)" fill="#263238"/>
            <path id="Path_30" data-name="Path 30" d="M225.594,336.833a18.524,18.524,0,0,1,0,7.213A18.524,18.524,0,0,1,225.594,336.833Z" transform="translate(-183.182 32.036)" fill="#263238"/>
            <path id="Path_31" data-name="Path 31" d="M257.145,336.833a18.523,18.523,0,0,1,0,7.213A18.524,18.524,0,0,1,257.145,336.833Z" transform="translate(-171.673 32.036)" fill="#263238"/>
            <path id="Path_32" data-name="Path 32" d="M288.7,336.833a18.522,18.522,0,0,1,0,7.213A18.525,18.525,0,0,1,288.7,336.833Z" transform="translate(-160.165 32.036)" fill="#263238"/>
            <path id="Path_33" data-name="Path 33" d="M320.248,336.833a18.523,18.523,0,0,1,0,7.213,18.522,18.522,0,0,1,0-7.213Z" transform="translate(-148.656 32.036)" fill="#263238"/>
            <path id="Path_34" data-name="Path 34" d="M351.8,336.833a18.522,18.522,0,0,1,0,7.213,18.522,18.522,0,0,1,0-7.213Z" transform="translate(-137.148 32.036)" fill="#263238"/>
            <path id="Path_35" data-name="Path 35" d="M383.35,336.833a18.521,18.521,0,0,1,0,7.213A18.52,18.52,0,0,1,383.35,336.833Z" transform="translate(-125.639 32.036)" fill="#263238"/>
            <path id="Path_36" data-name="Path 36" d="M414.866,336.833a18.522,18.522,0,0,1,0,7.213A18.522,18.522,0,0,1,414.866,336.833Z" transform="translate(-114.144 32.036)" fill="#263238"/>
            <rect id="Rectangle_6" data-name="Rectangle 6" width="87.012" height="367.965" transform="translate(57.865)" fill="#455a64"/>
            <rect id="Rectangle_7" data-name="Rectangle 7" width="26.445" height="50.958" transform="translate(73.979 18.363)" fill="#fff"/>
            <path id="Path_37" data-name="Path 37" d="M258.991,130.977c-.2,0-.355-11.419-.355-25.491s.159-25.479.355-25.479.342,11.407.342,25.479S259.15,130.977,258.991,130.977Z" transform="translate(-171 -61.643)" fill="#263238"/>
            <path id="Path_38" data-name="Path 38" d="M275.074,93.085a123.479,123.479,0,0,1-13.216.355,123.68,123.68,0,0,1-13.229-.355,123.671,123.671,0,0,1,13.229-.355,123.487,123.487,0,0,1,13.216.355Z" transform="translate(-174.65 -57.019)" fill="#263238"/>
            <path id="Path_39" data-name="Path 39" d="M275.241,106.442a125.917,125.917,0,0,1-13.338.355,125.6,125.6,0,0,1-13.326-.355,125.6,125.6,0,0,1,13.326-.355,125.926,125.926,0,0,1,13.339.355Z" transform="translate(-174.67 -52.146)" fill="#263238"/>
            <rect id="Rectangle_8" data-name="Rectangle 8" width="26.445" height="50.958" transform="translate(74.089 85.606)" fill="#fff"/>
            <path id="Path_40" data-name="Path 40" d="M259.035,180.244c-.2,0-.355-11.407-.355-25.479s.159-25.479.355-25.479.355,11.407.355,25.479S259.231,180.244,259.035,180.244Z" transform="translate(-170.984 -43.668)" fill="#263238"/>
            <path id="Path_41" data-name="Path 41" d="M275.155,142.356a123.88,123.88,0,0,1-13.229.355,123.482,123.482,0,0,1-13.216-.355A123.475,123.475,0,0,1,261.927,142,123.871,123.871,0,0,1,275.155,142.356Z" transform="translate(-174.621 -39.047)" fill="#263238"/>
            <path id="Path_42" data-name="Path 42" d="M275.312,155.713a125.6,125.6,0,0,1-13.326.355,125.739,125.739,0,0,1-13.338-.355,125.739,125.739,0,0,1,13.339-.355,125.6,125.6,0,0,1,13.326.355Z" transform="translate(-174.644 -34.175)" fill="#263238"/>
            <rect id="Rectangle_9" data-name="Rectangle 9" width="26.445" height="50.958" transform="translate(74.089 152.262)" fill="#fff"/>
            <path id="Path_43" data-name="Path 43" d="M259.035,229.076c-.2,0-.355-11.407-.355-25.479s.159-25.479.355-25.479.355,11.407.355,25.479S259.231,229.076,259.035,229.076Z" transform="translate(-170.984 -25.856)" fill="#263238"/>
            <path id="Path_44" data-name="Path 44" d="M275.155,191.2a123.871,123.871,0,0,1-13.228.355,123.483,123.483,0,0,1-13.216-.355,123.482,123.482,0,0,1,13.216-.355A123.871,123.871,0,0,1,275.155,191.2Z" transform="translate(-174.621 -21.231)" fill="#263238"/>
            <path id="Path_45" data-name="Path 45" d="M275.312,204.554a125.61,125.61,0,0,1-13.326.355,125.727,125.727,0,0,1-13.339-.355,125.736,125.736,0,0,1,13.339-.355A125.594,125.594,0,0,1,275.312,204.554Z" transform="translate(-174.644 -16.359)" fill="#263238"/>
            <rect id="Rectangle_10" data-name="Rectangle 10" width="26.445" height="50.958" transform="translate(74.089 220.838)" fill="#fff"/>
            <path id="Path_46" data-name="Path 46" d="M259.035,279.336c-.2,0-.355-11.407-.355-25.479s.159-25.491.355-25.491.355,11.407.355,25.491S259.231,279.336,259.035,279.336Z" transform="translate(-170.984 -7.528)" fill="#263238"/>
            <path id="Path_47" data-name="Path 47" d="M275.155,241.44a123.864,123.864,0,0,1-13.229.355,123.482,123.482,0,0,1-13.216-.355,129.807,129.807,0,0,1,13.216-.342,130.156,130.156,0,0,1,13.229.342Z" transform="translate(-174.621 -2.899)" fill="#263238"/>
            <path id="Path_48" data-name="Path 48" d="M275.312,254.8a125.593,125.593,0,0,1-13.326.354,125.734,125.734,0,0,1-13.339-.354,125.727,125.727,0,0,1,13.339-.355,125.578,125.578,0,0,1,13.326.355Z" transform="translate(-174.644 1.969)" fill="#263238"/>
            <rect id="Rectangle_11" data-name="Rectangle 11" width="63.404" height="367.965" transform="translate(118.482)" fill="#455a64"/>
            <g id="Group_1" data-name="Group 1" transform="translate(118.482)" opacity="0.3">
              <rect id="Rectangle_12" data-name="Rectangle 12" width="63.404" height="367.965"/>
            </g>
            <rect id="Rectangle_13" data-name="Rectangle 13" width="26.445" height="50.958" transform="translate(136.478 18.363)" fill="#fff"/>
            <path id="Path_49" data-name="Path 49" d="M304.759,130.977c-.2,0-.355-11.419-.355-25.491s.159-25.479.355-25.479.355,11.407.355,25.479S304.954,130.977,304.759,130.977Z" transform="translate(-154.306 -61.643)" fill="#263238"/>
            <path id="Path_50" data-name="Path 50" d="M320.869,93.085a123.479,123.479,0,0,1-13.216.355,123.679,123.679,0,0,1-13.228-.355,123.67,123.67,0,0,1,13.228-.355,123.488,123.488,0,0,1,13.216.355Z" transform="translate(-157.946 -57.019)" fill="#263238"/>
            <path id="Path_51" data-name="Path 51" d="M321.036,106.442a125.922,125.922,0,0,1-13.339.355,125.591,125.591,0,0,1-13.326-.355,125.6,125.6,0,0,1,13.326-.355,125.922,125.922,0,0,1,13.339.355Z" transform="translate(-157.966 -52.146)" fill="#263238"/>
            <rect id="Rectangle_14" data-name="Rectangle 14" width="26.445" height="50.958" transform="translate(136.588 87.526)" fill="#fff"/>
            <path id="Path_52" data-name="Path 52" d="M304.83,181.654c-.2,0-.355-11.419-.355-25.491s.159-25.479.355-25.479.355,11.407.355,25.479S305.026,181.654,304.83,181.654Z" transform="translate(-154.28 -43.158)" fill="#263238"/>
            <path id="Path_53" data-name="Path 53" d="M320.95,143.762a123.891,123.891,0,0,1-13.229.355,123.493,123.493,0,0,1-13.216-.355,123.489,123.489,0,0,1,13.216-.355,123.876,123.876,0,0,1,13.229.355Z" transform="translate(-157.917 -38.534)" fill="#263238"/>
            <path id="Path_54" data-name="Path 54" d="M321.107,157.119a125.611,125.611,0,0,1-13.326.355,125.742,125.742,0,0,1-13.338-.355,125.735,125.735,0,0,1,13.339-.355,125.586,125.586,0,0,1,13.326.355Z" transform="translate(-157.94 -33.661)" fill="#263238"/>
            <rect id="Rectangle_15" data-name="Rectangle 15" width="26.445" height="50.958" transform="translate(136.588 152.262)" fill="#fff"/>
            <path id="Path_55" data-name="Path 55" d="M304.83,229.076c-.2,0-.355-11.407-.355-25.479s.159-25.479.355-25.479.355,11.407.355,25.479S305.026,229.076,304.83,229.076Z" transform="translate(-154.28 -25.856)" fill="#263238"/>
            <path id="Path_56" data-name="Path 56" d="M320.95,191.2a123.871,123.871,0,0,1-13.228.355,123.484,123.484,0,0,1-13.216-.355,123.483,123.483,0,0,1,13.216-.355A123.871,123.871,0,0,1,320.95,191.2Z" transform="translate(-157.917 -21.231)" fill="#263238"/>
            <path id="Path_57" data-name="Path 57" d="M321.107,204.554a125.611,125.611,0,0,1-13.326.355,125.736,125.736,0,0,1-13.339-.355,125.736,125.736,0,0,1,13.339-.355,125.588,125.588,0,0,1,13.326.355Z" transform="translate(-157.94 -16.359)" fill="#263238"/>
            <rect id="Rectangle_16" data-name="Rectangle 16" width="26.445" height="50.958" transform="translate(137.664 221.95)" fill="#fff"/>
            <path id="Path_58" data-name="Path 58" d="M305.615,280.139c-.2,0-.342-11.407-.342-25.479s.147-25.479.342-25.479.355,11.407.355,25.479S305.811,280.139,305.615,280.139Z" transform="translate(-153.989 -7.231)" fill="#263238"/>
            <path id="Path_59" data-name="Path 59" d="M321.738,242.259a123.483,123.483,0,0,1-13.216.355,123.7,123.7,0,0,1-13.228-.355,123.671,123.671,0,0,1,13.228-.355,123.508,123.508,0,0,1,13.216.355Z" transform="translate(-157.629 -2.606)" fill="#263238"/>
            <path id="Path_60" data-name="Path 60" d="M321.892,255.616a125.607,125.607,0,0,1-13.326.355,125.607,125.607,0,0,1-13.326-.355,125.588,125.588,0,0,1,13.326-.355,125.586,125.586,0,0,1,13.326.355Z" transform="translate(-157.649 2.266)" fill="#263238"/>
            <rect id="Rectangle_17" data-name="Rectangle 17" width="26.445" height="50.958" transform="translate(74.089 291.039)" fill="#fff"/>
            <path id="Path_61" data-name="Path 61" d="M259.035,330.748c-.2,0-.355-11.419-.355-25.491s.159-25.479.355-25.479.355,11.407.355,25.479S259.231,330.748,259.035,330.748Z" transform="translate(-170.984 11.225)" fill="#263238"/>
            <path id="Path_62" data-name="Path 62" d="M275.155,292.883a123.848,123.848,0,0,1-13.229.355,123.482,123.482,0,0,1-13.216-.355,123.49,123.49,0,0,1,13.216-.355,123.871,123.871,0,0,1,13.228.355Z" transform="translate(-174.621 15.859)" fill="#263238"/>
            <path id="Path_63" data-name="Path 63" d="M275.312,306.24a125.594,125.594,0,0,1-13.326.355,125.719,125.719,0,0,1-13.339-.355,125.744,125.744,0,0,1,13.339-.355,125.6,125.6,0,0,1,13.326.354Z" transform="translate(-174.644 20.731)" fill="#263238"/>
            <rect id="Rectangle_18" data-name="Rectangle 18" width="26.445" height="50.958" transform="translate(136.588 293.228)" fill="#fff"/>
            <path id="Path_64" data-name="Path 64" d="M304.83,332.366c-.2,0-.355-11.407-.355-25.479s.159-25.479.355-25.479.355,11.407.355,25.479S305.026,332.366,304.83,332.366Z" transform="translate(-154.28 11.819)" fill="#263238"/>
            <path id="Path_65" data-name="Path 65" d="M320.95,294.486a123.855,123.855,0,0,1-13.229.355,123.485,123.485,0,0,1-13.216-.355,123.493,123.493,0,0,1,13.216-.355A123.879,123.879,0,0,1,320.95,294.486Z" transform="translate(-157.917 16.444)" fill="#263238"/>
            <path id="Path_66" data-name="Path 66" d="M321.107,307.843a125.6,125.6,0,0,1-13.326.355,125.752,125.752,0,0,1-13.339-.355,125.752,125.752,0,0,1,13.339-.355,125.586,125.586,0,0,1,13.326.355Z" transform="translate(-157.94 21.316)" fill="#263238"/>
            <rect id="Rectangle_19" data-name="Rectangle 19" width="30.834" height="44.564" transform="translate(256.024 204.161) rotate(180)" fill="#b5191a"/>
            <g id="Group_2" data-name="Group 2" transform="translate(225.19 159.598)" opacity="0.3">
              <rect id="Rectangle_20" data-name="Rectangle 20" width="30.834" height="44.564" transform="translate(30.834 44.564) rotate(180)"/>
            </g>
            <rect id="Rectangle_21" data-name="Rectangle 21" width="30.834" height="44.564" transform="translate(228.283 204.161) rotate(180)" fill="#b5191a"/>
            <path id="Path_67" data-name="Path 67" d="M344.522,216.389v-7.054c0-4.536-.061-10.906-.11-18.339v-.183h14.109l.22.232h0v25.54h-.22l-10.282-.086h.11l10.172-.086-.171.159V191.2h0c-.2-.208.269.257.22.208H344.522l.208-.208c0,7.336-.073,13.693-.1,18.2,0,2.225,0,4.01-.061,5.269V216.1a2.255,2.255,0,0,1-.049.293Z" transform="translate(-139.713 -21.226)" fill="#263238"/>
            <path id="Path_68" data-name="Path 68" d="M346.819,201.3a.611.611,0,0,1,.513.355.8.8,0,1,1-1.125-.4c.391-.208.66,0,.611,0a.6.6,0,0,0-.44.208.4.4,0,0,0,.122.721c.379.147.587-.2.526-.489S346.807,201.357,346.819,201.3Z" transform="translate(-139.21 -17.454)" fill="#263238"/>
            <rect id="Rectangle_22" data-name="Rectangle 22" width="127.871" height="172.349" transform="translate(293.9 368.246) rotate(180)" fill="#b5191a"/>
            <path id="Path_69" data-name="Path 69" d="M372.255,382.437l68.588.086V210.1H372.255Z" transform="translate(-129.557 -14.191)" fill="#7d1112"/>
            <rect id="Rectangle_23" data-name="Rectangle 23" width="23.388" height="23.388" transform="translate(198.806 312.801) rotate(180)" fill="#ebebeb"/>
            <path id="Path_71" data-name="Path 71" d="M330.926,304.659c-.122,0-.22-6.052-.22-13.449s.1-13.449.22-13.449.22,6.04.22,13.449S331.048,304.659,330.926,304.659Z" transform="translate(-144.712 10.489)" fill="#455a64"/>
            <path id="Path_72" data-name="Path 72" d="M319.741,284.414c0-.122,6.8-.22,15.185-.22s15.2.1,15.2.22-6.8.22-15.2.22S319.741,284.536,319.741,284.414Z" transform="translate(-148.712 12.836)" fill="#455a64"/>
            <rect id="Rectangle_24" data-name="Rectangle 24" width="23.388" height="23.388" transform="translate(232.171 312.801) rotate(180)" fill="#ebebeb"/>
            <path id="Path_73" data-name="Path 73" d="M355.376,304.659c-.122,0-.232-6.052-.232-13.449s.11-13.449.232-13.449.22,6.04.22,13.449S355.5,304.659,355.376,304.659Z" transform="translate(-135.798 10.489)" fill="#455a64"/>
            <path id="Path_74" data-name="Path 74" d="M344.179,284.414c0-.122,6.8-.22,15.185-.22s15.2.1,15.2.22-6.8.22-15.2.22S344.179,284.536,344.179,284.414Z" transform="translate(-139.798 12.836)" fill="#455a64"/>
            <rect id="Rectangle_25" data-name="Rectangle 25" width="23.388" height="23.388" transform="translate(198.806 275.854) rotate(180)" fill="#ebebeb"/>
            <path id="Path_75" data-name="Path 75" d="M330.926,277.587c-.122,0-.22-6.052-.22-13.449s.1-13.449.22-13.449.22,6.04.22,13.449S331.048,277.587,330.926,277.587Z" transform="translate(-144.712 0.615)" fill="#455a64"/>
            <path id="Path_76" data-name="Path 76" d="M319.741,257.342c0-.122,6.8-.22,15.185-.22s15.2.1,15.2.22-6.8.22-15.2.22S319.741,257.464,319.741,257.342Z" transform="translate(-148.712 2.961)" fill="#455a64"/>
            <rect id="Rectangle_26" data-name="Rectangle 26" width="23.388" height="23.388" transform="translate(232.171 275.854) rotate(180)" fill="#ebebeb"/>
            <path id="Path_77" data-name="Path 77" d="M355.376,277.587c-.122,0-.232-6.052-.232-13.449s.11-13.449.232-13.449.22,6.04.22,13.449S355.5,277.587,355.376,277.587Z" transform="translate(-135.798 0.615)" fill="#455a64"/>
            <path id="Path_78" data-name="Path 78" d="M344.179,257.342c0-.122,6.8-.22,15.185-.22s15.2.1,15.2.22-6.8.22-15.2.22S344.179,257.464,344.179,257.342Z" transform="translate(-139.798 2.961)" fill="#455a64"/>
            <rect id="Rectangle_27" data-name="Rectangle 27" width="23.388" height="23.388" transform="translate(198.806 238.81) rotate(180)" fill="#ebebeb"/>
            <path id="Path_79" data-name="Path 79" d="M330.926,250.452c-.122,0-.22-6.052-.22-13.449s.1-13.449.22-13.449.22,6.04.22,13.449S331.048,250.452,330.926,250.452Z" transform="translate(-144.712 -9.283)" fill="#455a64"/>
            <path id="Path_80" data-name="Path 80" d="M319.741,230.207c0-.122,6.8-.22,15.185-.22s15.2.1,15.2.22-6.8.22-15.2.22S319.741,230.317,319.741,230.207Z" transform="translate(-148.712 -6.937)" fill="#455a64"/>
            <rect id="Rectangle_28" data-name="Rectangle 28" width="23.388" height="23.388" transform="translate(232.171 238.81) rotate(180)" fill="#ebebeb"/>
            <path id="Path_81" data-name="Path 81" d="M355.376,250.452c-.122,0-.232-6.052-.232-13.449s.11-13.449.232-13.449.22,6.04.22,13.449S355.5,250.452,355.376,250.452Z" transform="translate(-135.798 -9.283)" fill="#455a64"/>
            <path id="Path_82" data-name="Path 82" d="M344.179,230.207c0-.122,6.8-.22,15.185-.22s15.2.1,15.2.22-6.8.22-15.2.22S344.179,230.317,344.179,230.207Z" transform="translate(-139.798 -6.937)" fill="#455a64"/>
            <g id="Group_4" data-name="Group 4" transform="translate(266.184 215.421)" opacity="0.7">
              <rect id="Rectangle_29" data-name="Rectangle 29" width="23.388" height="23.388" transform="translate(23.388 23.388) rotate(180)" fill="#fff"/>
            </g>
            <path id="Path_83" data-name="Path 83" d="M398.1,250.452c-.122,0-.22-6.052-.22-13.449s.1-13.449.22-13.449.22,6.04.22,13.449S398.218,250.452,398.1,250.452Z" transform="translate(-120.212 -9.283)" fill="#263238"/>
            <path id="Path_84" data-name="Path 84" d="M386.247,230.207c0-.122,6.81-.22,15.2-.22s15.185.1,15.185.22-6.8.22-15.185.22S386.247,230.317,386.247,230.207Z" transform="translate(-124.453 -6.937)" fill="#263238"/>
            <g id="Group_5" data-name="Group 5" transform="translate(266.184 252.821)" opacity="0.7">
              <rect id="Rectangle_30" data-name="Rectangle 30" width="23.388" height="23.388" transform="translate(23.388 23.388) rotate(180)" fill="#fff"/>
            </g>
            <path id="Path_85" data-name="Path 85" d="M398.1,277.856c-.122,0-.22-6.052-.22-13.449s.1-13.449.22-13.449.22,6.04.22,13.449S398.218,277.856,398.1,277.856Z" transform="translate(-120.212 0.713)" fill="#263238"/>
            <path id="Path_86" data-name="Path 86" d="M386.247,257.611c0-.122,6.81-.22,15.2-.22s15.185.1,15.185.22-6.8.22-15.185.22S386.247,257.733,386.247,257.611Z" transform="translate(-124.453 3.059)" fill="#263238"/>
            <g id="Group_6" data-name="Group 6" transform="translate(266.184 290.232)" opacity="0.7">
              <rect id="Rectangle_31" data-name="Rectangle 31" width="23.388" height="23.388" transform="translate(23.388 23.388) rotate(180)" fill="#fff"/>
            </g>
            <path id="Path_87" data-name="Path 87" d="M398.1,305.25c-.122,0-.22-6.04-.22-13.449s.1-13.449.22-13.449.22,6.052.22,13.449S398.218,305.25,398.1,305.25Z" transform="translate(-120.212 10.705)" fill="#263238"/>
            <path id="Path_88" data-name="Path 88" d="M386.247,285.014c0-.122,6.81-.22,15.2-.22s15.185.1,15.185.22-6.8.22-15.185.22S386.247,285.137,386.247,285.014Z" transform="translate(-124.453 13.055)" fill="#263238"/>
            <path id="Path_89" data-name="Path 89" d="M335.52,347.229v-3.215c0-2.115,0-5.135-.061-8.9,0-7.617,0-18.229-.086-30.394v-.208h24.452v.208c0,12.226,0,22.973-.073,30.663v12.263a1.407,1.407,0,0,1,0-.208V335.382c0-7.69,0-18.4-.073-30.663l.208.22H335.923l.22-.22c0,12.226-.061,22.777-.086,30.394,0,3.766,0,6.785-.061,8.9v3.008C336,347.18,335.52,347.229,335.52,347.229Z" transform="translate(-143.01 20.247)" fill="#263238"/>
            <rect id="Rectangle_32" data-name="Rectangle 32" width="8.167" height="19.549" transform="translate(213.465 347.046) rotate(180)" fill="#e0e0e0"/>
            <path id="Path_90" data-name="Path 90" d="M353.049,326.089h-8.216V306.527h8.216Zm-8.179,0H353V306.527h-8.081Z" transform="translate(-139.559 20.982)" fill="#263238"/>
            <rect id="Rectangle_33" data-name="Rectangle 33" width="8.167" height="19.549" transform="translate(203.697 347.046) rotate(180)" fill="#e0e0e0"/>
            <path id="Path_91" data-name="Path 91" d="M345.891,326.089h-8.216V306.527h8.216Zm-8.179,0h8.13V306.527h-8.094Z" transform="translate(-142.17 20.982)" fill="#263238"/>
            <path id="Path_92" data-name="Path 92" d="M337.861,322.358c0,.061-.4.061-.587.526a.966.966,0,0,0,0,.782.8.8,0,0,0,.782.391.819.819,0,0,0,.587-.66.746.746,0,0,0-.269-.709c-.391-.318-.758-.245-.77-.306s.379-.293.954.061a1.039,1.039,0,0,1,.489,1,1.125,1.125,0,0,1-2.188.367,1.223,1.223,0,0,1,.086-1.113.881.881,0,0,1,.6-.44C337.776,322.285,337.861,322.322,337.861,322.358Z" transform="translate(-142.503 26.717)" fill="#263238"/>
            <path id="Path_93" data-name="Path 93" d="M319.151,305.788a2.127,2.127,0,0,1,0-.269v-3.937h13.705l.086.086h0v4.255h-.061l-.086.086v-4.169h0c.171.183,0,0,.086.1H319.236v3.851C319.236,306.02,319.151,305.788,319.151,305.788Z" transform="translate(-148.929 19.178)" fill="#263238"/>
            <path id="Path_94" data-name="Path 94" d="M358.048,299.46a2.506,2.506,0,0,1,0-.281v-3.986h13.705s-.086-.1.086.086h0v4.279h-.073l-.086.1v-4.194h0l.086.086H358.121v3.9C358.121,299.68,358.048,299.46,358.048,299.46Z" transform="translate(-134.741 16.838)" fill="#263238"/>
            <path id="Path_95" data-name="Path 95" d="M364.282,274.353v-4.206h13.644l.1.086h0v4.255h-.073l-.086.086V270.4h0c.183.183,0,0,.086.1H364.306l.061-.061v3.912Z" transform="translate(-132.465 7.712)" fill="#263238"/>
            <path id="Path_96" data-name="Path 96" d="M328.332,247.389v-4.206h13.656l.086.086h0v4.242H342l-.086.1v-4.193h0l.1.086h-13.6v3.9C328.344,247.279,328.332,247.389,328.332,247.389Z" transform="translate(-145.578 -2.124)" fill="#263238"/>
            <path id="Path_97" data-name="Path 97" d="M356.794,218.6a2.173,2.173,0,0,1,0-.269v-3.937h13.644l.086.086h0v4.255h-.073l-.086.086v-4.169h0c.171.183,0,0,.086.1H356.806V218.6C356.806,218.829,356.794,218.6,356.794,218.6Z" transform="translate(-135.198 -12.626)" fill="#263238"/>
            <path id="Path_98" data-name="Path 98" d="M322.277,250.376a2.15,2.15,0,0,1,0-.269v-3.986h13.705l.1.1h0v4.255h-.061l-.086.086V246.39h0l.086.086H322.436v3.9Q322.357,250.378,322.277,250.376Z" transform="translate(-147.788 -1.052)" fill="#263238"/>
            <path id="Path_99" data-name="Path 99" d="M368.573,277.372v-4.206h13.644l.1.086h0v4.255h-.061l-.086.086v-4.34h0l.086.086H368.609l.061-.061v3.912C368.671,277.433,368.573,277.372,368.573,277.372Z" transform="translate(-130.9 8.813)" fill="#263238"/>
            <path id="Path_100" data-name="Path 100" d="M364.282,221.678v-4.206h13.644l.1.086h0v4.255h-.073l-.086.086v-4.169h0l.086.086H364.306l.061-.061v3.68a.732.732,0,0,0-.086.245Z" transform="translate(-132.465 -11.502)" fill="#263238"/>
            <path id="Path_101" data-name="Path 101" d="M315.908,308.87a2.15,2.15,0,0,1,0-.269v-3.937h13.705l.086.086h0V309h-.061l-.086.086v-4.169h0l.1.1H316.006v3.851Z" transform="translate(-150.112 20.302)" fill="#263238"/>
          </g>
          <g id="freepik--speech-bubble--inject-2" transform="translate(419.962 116.82)">
            <path id="Path_102" data-name="Path 102" d="M434.078,102.394H316.256v82.012h44.062l15.038,16.346,14.965-16.346h43.757Z" transform="translate(-315.877 -102.088)" fill="#fff"/>
            <path id="Path_103" data-name="Path 103" d="M434.179,102.475V108.2c0,3.79,0,9.328.061,16.432,0,14.28.073,34.8.134,59.907v.245H390.361l.208-.1-14.952,16.358-.22.245-.22-.245L360.126,184.7l.232.1h-44.38V102.17h.342l85.2.147,24.1.073h-.037l-24.159.086-85.019.134.281-.281V184.34l-.318-.318h44.209l.086.1,15.026,16.358h-.44l14.965-16.346.086-.086h43.891l-.245.257c0-24.99.1-45.456.134-59.7,0-7.128,0-12.691.061-16.493v-4.328C434.142,102.781,434.179,102.475,434.179,102.475Z" transform="translate(-315.978 -102.17)" fill="#263238"/>
          </g>
          <g id="freepik--Locator--inject-2" transform="translate(452.761 65.965)">
            <path id="Path_104" data-name="Path 104" d="M365.633,64.914A25.088,25.088,0,0,0,345.863,104.7h0l.245.33h0L363.9,129.149a3.815,3.815,0,0,0,6.235-.134L386.2,105.137c3.032-4.634,5.123-9.475,5.123-15.185a25.088,25.088,0,0,0-25.687-25.039Zm.6,43.329A18.865,18.865,0,1,1,385.1,89.378a18.865,18.865,0,0,1-18.865,18.865Z" transform="translate(-339.612 -64.907)" fill="#ff6552"/>
            <g id="Group_7" data-name="Group 7" transform="translate(1.492)" opacity="0.3">
              <path id="Path_105" data-name="Path 105" d="M365.633,64.914A25.088,25.088,0,0,0,345.863,104.7h0l.245.33h0L363.9,129.149a3.815,3.815,0,0,0,6.235-.134L386.2,105.137c3.032-4.634,5.123-9.475,5.123-15.185a25.088,25.088,0,0,0-25.687-25.039Zm.6,43.329A18.865,18.865,0,1,1,385.1,89.378a18.865,18.865,0,0,1-18.865,18.865Z" transform="translate(-341.104 -64.907)"/>
            </g>
            <path id="Path_106" data-name="Path 106" d="M364.54,64.914A25.088,25.088,0,0,0,344.77,104.7h0l.245.33h0L362.8,129.149a3.827,3.827,0,0,0,6.247-.134L385.1,105.137c3.044-4.634,5.123-9.475,5.123-15.185A25.088,25.088,0,0,0,364.54,64.914Zm.6,39.93a14.292,14.292,0,1,1,14.28-14.292,14.292,14.292,0,0,1-14.28,14.292Z" transform="translate(-340.011 -64.907)" fill="#ffd400"/>
          </g>
          <g id="freepik--Texts--inject-2" transform="translate(431.43 132.961)">
            <text id="ADDRESS:" transform="translate(0 21.327)" fill="#263238" font-size="6" font-family="Montserrat-ExtraBold, Montserrat" font-weight="800"><tspan x="0" y="0">ADDRESS:</tspan></text>
            <text id="POST_CODE_:" data-name="POST CODE :" transform="translate(0 51.806)" fill="#263238" font-size="6" font-family="Montserrat-ExtraBold, Montserrat" font-weight="800"><tspan x="0" y="0">POST </tspan><tspan y="0" letter-spacing="-0.01em">C</tspan><tspan y="0">ODE :</tspan></text>
            <text id="CITY:" transform="translate(0 30.729)" fill="#263238" font-size="6" font-family="Montserrat-ExtraBold, Montserrat" font-weight="800"><tspan x="0" y="0">CITY:</tspan></text>
            <text id="DELIVERY_ADDRESS" data-name="DELIVERY ADDRESS" transform="translate(1.553 8)" fill="#263238" font-size="8" font-family="Montserrat-ExtraBold, Montserrat" font-weight="800"><tspan x="0" y="0">DELIVERY ADDRESS</tspan></text>
            <path id="Path_107" data-name="Path 107" d="M404.03,127.894c0,.171-11.639.318-26,.318s-26.017-.147-26.017-.318,11.651-.318,26.017-.318S404.03,127.71,404.03,127.894Z" transform="translate(-314.304 -109.044)"/>
            <path id="Path_108" data-name="Path 108" d="M383.758,135.526c0,.171-9.622.318-21.493.318s-21.481-.147-21.481-.318,9.622-.318,21.481-.318S383.758,135.355,383.758,135.526Z" transform="translate(-318.398 -106.26)"/>
            <text id="COUNTRY:" transform="translate(0 40.852)" fill="#263238" font-size="6" font-family="Montserrat-ExtraBold, Montserrat" font-weight="800"><tspan x="0" y="0" letter-spacing="-0.01em">C</tspan><tspan y="0">OUNTRY:</tspan></text>
            <path id="Path_109" data-name="Path 109" d="M383.955,143.463c0,.183-7.152.318-15.967.318s-15.979-.134-15.979-.318,7.152-.318,15.979-.318S383.955,143.292,383.955,143.463Z" transform="translate(-314.304 -103.365)"/>
            <path id="Path_110" data-name="Path 110" d="M406.561,152.645c0,.183-11,.318-24.586.318s-24.538-.135-24.538-.318,11-.318,24.586-.318S406.561,152.474,406.561,152.645Z" transform="translate(-312.324 -100.015)"/>
          </g>
          <g id="freepik--Character--inject-2" transform="translate(0 202.186)">
            <path id="Path_111" data-name="Path 111" d="M127.353,388.562H8.26l6.7-6.614H131.265Z" transform="translate(-8.26 -85.484)" fill="#e0e0e0"/>
            <path id="Path_112" data-name="Path 112" d="M168.82,286.129a13.163,13.163,0,0,0,2.127-1.3c1.284-.856,3.032-2.054,4.89-3.411l.966-.685-.355-.086c1.027,1.8,1.944,3.374,2.629,4.487a9.648,9.648,0,0,0,1.223,1.748,8.8,8.8,0,0,0-.893-1.907c-.6-1.161-1.479-2.775-2.445-4.572l-.147-.245-.22.159-.978.685c-1.907,1.357-3.668,2.6-4.89,3.533a11.494,11.494,0,0,0-1.907,1.589Z" transform="translate(50.306 -122.611)" fill="#263238"/>
            <circle id="Ellipse_1" data-name="Ellipse 1" cx="40.089" cy="40.089" r="40.089" transform="matrix(0.07, -0.998, 0.998, 0.07, 277.196, 333.014)" fill="#263238"/>
            <path id="Path_113" data-name="Path 113" d="M212.152,380.935v.11a39.99,39.99,0,1,0,79.972,1.149v-.1Z" transform="translate(66.111 -85.854)" fill="#263238"/>
            <path id="Path_114" data-name="Path 114" d="M220.878,388.537a28.12,28.12,0,1,0,28.474-27.667,28.12,28.12,0,0,0-28.474,27.667Z" transform="translate(69.293 -93.174)" fill="#fafafa"/>
            <path id="Path_115" data-name="Path 115" d="M249.351,360.869a28.12,28.12,0,0,0-28.474,27.667l56.142.807a28.12,28.12,0,0,0-27.667-28.474Z" transform="translate(69.294 -93.174)" fill="#e0e0e0"/>
            <path id="Path_116" data-name="Path 116" d="M228.913,385.764a17.116,17.116,0,1,0,17.349-16.86A17.116,17.116,0,0,0,228.913,385.764Z" transform="translate(72.225 -90.242)" fill="#263238"/>
            <path id="Path_117" data-name="Path 117" d="M234.969,338.9s40.945-12.385,57.89,32.093l-85.68,26.543Z" transform="translate(64.298 -101.766)" fill="#455a64"/>
            <path id="Path_118" data-name="Path 118" d="M31.355,391.552a39.991,39.991,0,1,0,40.554-39.416,39.991,39.991,0,0,0-40.554,39.416Z" transform="translate(0.163 -96.36)" fill="#263238"/>
            <path id="Path_119" data-name="Path 119" d="M31.355,380.935v.11a39.99,39.99,0,1,0,79.972,1.149v-.1Z" transform="translate(0.163 -85.854)" fill="#263238"/>
            <path id="Path_120" data-name="Path 120" d="M40.081,388.536a28.12,28.12,0,1,0,28.438-27.667,28.12,28.12,0,0,0-28.438,27.667Z" transform="translate(3.346 -93.174)" fill="#fafafa"/>
            <path id="Path_121" data-name="Path 121" d="M68.527,360.869a28.12,28.12,0,0,0-28.474,27.667l56.142.807a28.12,28.12,0,0,0-27.667-28.474Z" transform="translate(3.337 -93.174)" fill="#e0e0e0"/>
            <path id="Path_122" data-name="Path 122" d="M48.116,385.764A17.116,17.116,0,1,0,65.464,368.9,17.116,17.116,0,0,0,48.116,385.764Z" transform="translate(6.278 -90.242)" fill="#263238"/>
            <path id="Path_123" data-name="Path 123" d="M120.577,370.544c-.281.11-21.065-3.252-21.065-3.252h0a12.715,12.715,0,0,1-9.5,4.976c-8.986.428-17.789.831-25.406,1.223a12.886,12.886,0,0,0-12.287,13.363h0A12.923,12.923,0,0,0,64.7,399.214l44.282,1.736c7.336.293,16.97-4.132,21.518-9.781h0Z" transform="translate(7.808 -90.83)" fill="#455a64"/>
            <path id="Path_124" data-name="Path 124" d="M22.615,385.007s-1.907-38.964,34.722-47.094v-4.988h128.3v11.908s-18.828,22.679-12.678,41.507,8.069,20.784,8.069,20.784h73.026a49.979,49.979,0,0,0,9.218-27.68c.391-16.517-6.48-44.784-11.6-62.841-4.658-16.432-7.6-30.161-7.6-30.161l21.9-7.336s40.541,53,42.192,55.983,7.336,9.927,5.966,25.161S276.365,422.5,266.768,427.81s-18.266,5.636-26.824,6.969c-7.482,1.149-62.756.379-77.219.159a28.279,28.279,0,0,1-14.28-3.961c-4.328-2.616-7.58-6.957-11.162-14.084l-7.617-14.9Z" transform="translate(-3.029 -122.997)" fill="#455a64"/>
            <path id="Path_125" data-name="Path 125" d="M34.3,354.75,18.134,380.021a3.937,3.937,0,0,0,4.829,5.783,18.339,18.339,0,0,0,5.416-3.668c7.4-7.042,20.576-25.565,20.576-25.565Z" transform="translate(-4.893 -95.405)" fill="#455a64"/>
            <path id="Path_126" data-name="Path 126" d="M144.283,369.842a2.212,2.212,0,0,1,.086-.367q.122-.379.33-1.064a27.375,27.375,0,0,0,.844-4.169A29.428,29.428,0,0,0,143.1,348.96a32.241,32.241,0,0,0-5.954-8.949,39.247,39.247,0,0,0-9.781-7.495,49.39,49.39,0,0,0-12.813-4.768,67.242,67.242,0,0,0-14.671-1.516,112.492,112.492,0,0,0-14.671,1.076c-4.731.648-9.279,1.43-13.559,2.445A80,80,0,0,0,49.886,337.8a54.232,54.232,0,0,0-12.434,9.487c-1.3,1.333-2.213,2.445-2.836,3.2l-.7.868a2.045,2.045,0,0,1-.245.281,32.606,32.606,0,0,1,3.668-4.487,52.708,52.708,0,0,1,12.409-9.659,78.979,78.979,0,0,1,21.836-8.2c4.291-.99,8.839-1.785,13.583-2.445a111.352,111.352,0,0,1,14.793-1.1,66.8,66.8,0,0,1,14.744,1.54,50.384,50.384,0,0,1,12.935,4.89,39.577,39.577,0,0,1,9.9,7.617,32.169,32.169,0,0,1,5.979,9.1,29.342,29.342,0,0,1,2.36,15.454,25.247,25.247,0,0,1-.941,4.181l-.379,1.051a3.341,3.341,0,0,1-.281.269Z" transform="translate(1.011 -105.986)" fill="#263238"/>
            <path id="Path_127" data-name="Path 127" d="M116.954,358.948c-.061,0,.208-.623.489-1.736a12.7,12.7,0,0,0,.134-4.89,20,20,0,0,0-2.372-6.785,23.382,23.382,0,0,0-2.372-3.558,21.825,21.825,0,0,0-3.215-3.252,28.229,28.229,0,0,0-7.629-4.463,35.765,35.765,0,0,0-7.005-1.907,47.411,47.411,0,0,0-4.89-.562,13.7,13.7,0,0,1-1.809-.134,1.8,1.8,0,0,1,.477,0h1.345a36.7,36.7,0,0,1,4.89.4,34.648,34.648,0,0,1,7.115,1.822A28.119,28.119,0,0,1,109.9,338.4a21.549,21.549,0,0,1,3.24,3.374,24.451,24.451,0,0,1,2.445,3.668,19.916,19.916,0,0,1,2.335,6.969,12.091,12.091,0,0,1-.318,4.951,6.517,6.517,0,0,1-.465,1.223,2.445,2.445,0,0,1-.183.367Z" transform="translate(20.93 -103.833)" fill="#f5f5f5"/>
            <g id="Group_8" data-name="Group 8" transform="translate(112.772 220.968)" opacity="0.4">
              <path id="Path_128" data-name="Path 128" d="M90.891,326.63a51.35,51.35,0,0,1,19.317,7.861,34.233,34.233,0,0,1,12.947,16.077c2.555,6.59,2.176,15.319-.526,20.784l9.072.746c3.056-10.172-.269-22.667-7.6-30.638a45.041,45.041,0,0,0-33.206-14.83" transform="translate(-90.891 -326.63)"/>
            </g>
            <path id="Path_129" data-name="Path 129" d="M176.444,321.933c0,.147-28.841.257-64.406.257s-64.406-.11-64.406-.257,28.841-.257,64.406-.257S176.444,321.8,176.444,321.933Z" transform="translate(6.102 -107.469)" fill="#263238"/>
            <path id="Path_130" data-name="Path 130" d="M158.02,322.017a11.162,11.162,0,0,0,2.323-5.746c.2-3.228-1.223-7.262-4.731-7.262H111.3a13,13,0,0,0-13,13.008Z" transform="translate(24.587 -112.089)" fill="#455a64"/>
            <path id="Path_131" data-name="Path 131" d="M187.181,296.083l-7.715-16.065a9.781,9.781,0,0,1,3.9-12.568L206.4,253.707a7.763,7.763,0,0,1,3.986-1.1h4.976l2.005,32.472-7.69,3.008,4.89,7.9Z" transform="translate(53.854 -132.662)" fill="#455a64"/>
            <path id="Path_132" data-name="Path 132" d="M205.576,253.467s7.886,1.809,8.876,13.962-6.944,15.894-6.944,15.894Z" transform="translate(63.713 -132.349)" fill="#fff"/>
            <path id="Path_133" data-name="Path 133" d="M205.577,253.477a2.76,2.76,0,0,1,.086.648l.147,1.748c.134,1.589.293,3.741.5,6.382.416,5.379.966,12.776,1.5,21.1l-.452-.269a10.332,10.332,0,0,0,2.311-1.724,14,14,0,0,0,3.472-5.416,18.767,18.767,0,0,0,1.088-5.954,22.752,22.752,0,0,0-1.944-10.074,13.106,13.106,0,0,0-4.438-5.257,14.209,14.209,0,0,0-2.274-1.223,2.214,2.214,0,0,1,.66.147,9.575,9.575,0,0,1,1.748.831,12.776,12.776,0,0,1,4.707,5.269,22.655,22.655,0,0,1,2.127,10.282,18.827,18.827,0,0,1-1.088,6.113,14.671,14.671,0,0,1-3.668,5.661,11.063,11.063,0,0,1-2.445,1.834l-.428.22v-.489c-.538-8.473-.954-16.016-1.223-21.383-.122-2.6-.232-4.731-.306-6.309l-.073-1.675A2.961,2.961,0,0,1,205.577,253.477Z" transform="translate(63.712 -132.359)" fill="#263238"/>
            <path id="Path_134" data-name="Path 134" d="M191.735,268.808s-20.992,9.952-23.559,11.529c-1.773,1.137-3.3,3.118-1.907,6.614,2.384,5.942,12.226.355,12.226.355l19.562-9.781s7.507-3.558,4.731-7.984C199.633,264.627,191.735,268.808,191.735,268.808Z" transform="translate(49.178 -127.358)" fill="#263238"/>
            <ellipse id="Ellipse_2" data-name="Ellipse 2" cx="6.223" cy="10.967" rx="6.223" ry="10.967" transform="translate(232.037 106.484)" fill="#263238"/>
            <path id="Path_135" data-name="Path 135" d="M183.583,256.891l3.423,11.847a3.057,3.057,0,0,0,1.589-3.5c-.856-4.059-1.345-6.944-2.286-10.5-.11-.355-2.726,2.152-2.726,2.152" transform="translate(55.691 -131.897)" fill="#263238"/>
            <g id="Group_9" data-name="Group 9" transform="translate(167.045 158.102)" opacity="0.3">
              <path id="Path_136" data-name="Path 136" d="M135.229,390.869c-.342-.978-.685-1.968-1.015-3s-.66-1.944-.917-2.9a29.339,29.339,0,0,1-.856-4.462C126.671,404,135.474,420.541,150.61,421.7c22.092,1.7,49.038,2.934,59.907.073,19.867-5.208,27.154-21.774,28.89-24.452s17.544-31.616,7.861-59.418-26.555-57.34-26.567-57.34l-16.077,5.367s2.946,13.73,7.6,30.161c5.123,18.058,11.994,46.324,11.6,62.841a49.98,49.98,0,0,1-9.218,27.68h-73s-1.565-1.565-6.382-15.7" transform="translate(-130.658 -280.566)"/>
            </g>
            <path id="Path_137" data-name="Path 137" d="M20.479,353.714l.513-5.575,133.263,15.356a13.18,13.18,0,0,1,11.431,15.38l-.6,3.374L27.166,362.2a7.849,7.849,0,0,1-6.688-8.485Z" transform="translate(-3.815 -97.816)" fill="#455a64"/>
            <g id="Group_10" data-name="Group 10" transform="translate(16.631 250.322)" opacity="0.3">
              <path id="Path_138" data-name="Path 138" d="M20.479,353.714l.513-5.575,133.263,15.356a13.18,13.18,0,0,1,11.431,15.38l-.6,3.374L27.166,362.2a7.849,7.849,0,0,1-6.688-8.485Z" transform="translate(-20.445 -348.139)"/>
            </g>
            <g id="Group_11" data-name="Group 11" transform="translate(275.818 235.54)" opacity="0.3">
              <path id="Path_139" data-name="Path 139" d="M210.36,394.954s29.342-32.264,35.394-57.645a57.768,57.768,0,0,1,9.084.672S237.477,385.149,210.36,394.954Z" transform="translate(-210.36 -337.308)"/>
            </g>
            <path id="Path_140" data-name="Path 140" d="M245.721,328.977a4.2,4.2,0,0,1,.159.819c.073.538.232,1.32.342,2.36a37.1,37.1,0,0,1-.232,8.754,44.587,44.587,0,0,1-3.876,12.409,139.071,139.071,0,0,1-7.764,13.876,185.452,185.452,0,0,1-17.177,23.229c-2.384,2.824-4.352,5.074-5.734,6.614l-1.577,1.773a4.773,4.773,0,0,1-.587.6,4.575,4.575,0,0,1,.5-.66l1.516-1.834,5.612-6.724a200.253,200.253,0,0,0,17.006-23.229,148.658,148.658,0,0,0,7.788-13.815,45.568,45.568,0,0,0,3.937-12.226,38.107,38.107,0,0,0,.379-8.693c-.061-1.027-.2-1.822-.232-2.36a5.247,5.247,0,0,1-.061-.892Z" transform="translate(65.063 -104.806)" fill="#263238"/>
            <path id="Path_141" data-name="Path 141" d="M201.227,381.742a78.526,78.526,0,0,1-9.035-8.852,39.585,39.585,0,0,1,4.695,4.242A38.694,38.694,0,0,1,201.227,381.742Z" transform="translate(58.831 -88.788)" fill="#263238"/>
            <path id="Path_142" data-name="Path 142" d="M135.011,380.716a13.52,13.52,0,0,1,2.152-4.181,14.169,14.169,0,0,1,3.081-3.546c.122.1-1.223,1.712-2.653,3.827S135.146,380.777,135.011,380.716Z" transform="translate(37.974 -88.752)" fill="#263238"/>
            <path id="Path_143" data-name="Path 143" d="M97.436,400.256a19.782,19.782,0,0,0,4-5.086,17.593,17.593,0,0,0,1.968-6.7A15.552,15.552,0,0,0,96.384,373.8a17.435,17.435,0,0,0-6.443-2.69,19.414,19.414,0,0,0-6.468-.086,3.409,3.409,0,0,1,.44-.135,8.55,8.55,0,0,1,1.223-.245,15.112,15.112,0,0,1,4.817.11,17.458,17.458,0,0,1,6.626,2.653,15.759,15.759,0,0,1,7.226,15.148,17.385,17.385,0,0,1-2.115,6.822,15.454,15.454,0,0,1-2.934,3.815c-.4.4-.782.648-1,.844a1.673,1.673,0,0,1-.318.22Z" transform="translate(19.175 -89.659)" fill="#263238"/>
            <path id="Path_144" data-name="Path 144" d="M58.2,387.333a21.529,21.529,0,0,1-.477-4.695,23.034,23.034,0,0,1,0-4.731,21.58,21.58,0,0,1,.477,4.707,22.006,22.006,0,0,1,0,4.719Z" transform="translate(9.739 -86.958)" fill="#263238"/>
            <path id="Path_145" data-name="Path 145" d="M60.956,387.349a22.888,22.888,0,0,1-.856-4.695,23.3,23.3,0,0,1-.355-4.756,21.749,21.749,0,0,1,.856,4.695,21.382,21.382,0,0,1,.355,4.756Z" transform="translate(10.517 -86.961)" fill="#263238"/>
            <path id="Path_146" data-name="Path 146" d="M120.254,318.609c0,.134-16.2.257-36.189.257s-36.2-.122-36.2-.257,16.212-.257,36.2-.257S120.254,318.462,120.254,318.609Z" transform="translate(6.187 -108.681)" fill="#263238"/>
            <path id="Path_147" data-name="Path 147" d="M41.566,415.93a2.673,2.673,0,0,1-.428-.428c-.257-.293-.672-.721-1.137-1.32a37.9,37.9,0,0,1-3.668-5.294,40.566,40.566,0,0,1,.159-40.566,37.243,37.243,0,0,1,3.668-5.269c.465-.6.892-1.015,1.149-1.308a3.005,3.005,0,0,1,.44-.428,3.243,3.243,0,0,1-.355.489c-.245.318-.636.758-1.076,1.369A41.843,41.843,0,0,0,36.651,408.7a42.663,42.663,0,0,0,3.46,5.355c.428.624.819,1.051,1.051,1.382a2.63,2.63,0,0,1,.4.489Z" transform="translate(0.027 -93.01)" fill="#455a64"/>
            <path id="Path_148" data-name="Path 148" d="M138.854,389.848S139.979,416,140,417.258l5.551,4.206,13.314-3.313-1.223-28.9Z" transform="translate(39.376 -82.821)" fill="#ffbe9d"/>
            <path id="Path_149" data-name="Path 149" d="M168.781,223.64l13.925,7.446L206,214.1l6.773,11.688s-14.182,13.681-19.219,18.339-8.338,7.14-12.018,6.419-24.171-12.1-24.171-12.1S163.328,223.885,168.781,223.64Z" transform="translate(46.127 -146.707)" fill="#ffbe9d"/>
            <path id="Path_150" data-name="Path 150" d="M176.081,231.741a.64.64,0,0,1,.134.232v.122h-.306v-.477a18.584,18.584,0,0,1-.134-2.1,7.58,7.58,0,0,1,.257-3,6.945,6.945,0,0,1,.379,2.983c0,.819,0,1.565-.061,2.115v.477h-.318v-.134C176,231.826,176.045,231.741,176.081,231.741Z" transform="translate(52.825 -142.178)" fill="#eb996e"/>
            <path id="Path_151" data-name="Path 151" d="M196.848,231.092c.465.147,4.8-4.536,4.8-4.536s8.13-.147,10.074-1.223,4.89-5.086,4.89-5.086l-3.925-11.957a93.583,93.583,0,0,0-10.82,1.345c-2.592.721-8.79,7.213-8.79,7.213l-2.665,4.145S189.586,228.854,196.848,231.092Z" transform="translate(58.173 -148.827)" fill="#ffbe9d"/>
            <path id="Path_152" data-name="Path 152" d="M209.265,226.489a26.979,26.979,0,0,0,2.971-.379c1.956-.33,3.973-.5,3.912-2.445a2.25,2.25,0,0,0-.746-1.712s1.443-.6,1.43-1.687a2.005,2.005,0,0,0-.844-1.614s1.993-.917,2.054-2.531a3.215,3.215,0,0,0-1.736-2.9s6.113-1.748,6.6-1.944c1.736-.709,5.049-2.286,3.668-3.582-.5-.477-.7-1-4.193-.575-3.179.379-8.179,1.553-8.179,1.553s-4.279.208-6.529.44a48.756,48.756,0,0,0-8.253,1.479c-2.885,1.333-5.4,5.123-5.4,5.123l6.345,11.321Z" transform="translate(59.498 -149.311)" fill="#ffbe9d"/>
            <path id="Path_153" data-name="Path 153" d="M211.006,217.943a11,11,0,0,0-1.724-.1h-1.871a7.09,7.09,0,0,0-1.113,0,1.98,1.98,0,0,0-1.125.538,1.223,1.223,0,0,0-.367,1.223,1.565,1.565,0,0,0,.746.892,4.807,4.807,0,0,0,.917.44l.807.306a12.313,12.313,0,0,0,1.223.379c.306.073.452.11.452.086s-.611-.245-1.589-.636a11.664,11.664,0,0,1-1.663-.782,1.357,1.357,0,0,1-.624-.758.954.954,0,0,1,.306-.941,1.81,1.81,0,0,1,.966-.477,6.5,6.5,0,0,1,1.076,0h1.871A10.813,10.813,0,0,0,211.006,217.943Z" transform="translate(63.418 -145.35)" fill="#eb996e"/>
            <path id="Path_154" data-name="Path 154" d="M204.448,212.571a4.327,4.327,0,0,0,1.638-1.223,4.108,4.108,0,0,0,1.137-1.687c-.061,0-.562.709-1.333,1.5S204.4,212.509,204.448,212.571Z" transform="translate(63.301 -148.327)" fill="#eb996e"/>
            <path id="Path_155" data-name="Path 155" d="M200.892,209.724a8.656,8.656,0,0,1,4.242,2.445,16.4,16.4,0,0,1,2.812,4.059c.611,1.223,1.137,2.629.465,3.766a2.824,2.824,0,0,1-3.668.782,6.578,6.578,0,0,1-2.641-3.02,16.8,16.8,0,0,0-2.054-3.521" transform="translate(61.697 -148.305)" fill="#ffbe9d"/>
            <path id="Path_156" data-name="Path 156" d="M200.111,214.216s.22.281.575.844a27.128,27.128,0,0,1,1.223,2.445,11.223,11.223,0,0,0,.978,1.687,5.232,5.232,0,0,0,1.638,1.54,3.386,3.386,0,0,0,2.445.355,2.628,2.628,0,0,0,1.223-.648,2.25,2.25,0,0,0,.624-1.223,4.658,4.658,0,0,0-.526-2.629,22.39,22.39,0,0,0-1.223-2.152,12.554,12.554,0,0,0-2.739-3.13,8.253,8.253,0,0,0-2.445-1.369,4.245,4.245,0,0,0-.746-.2h-.257s.355.1.966.33a8.986,8.986,0,0,1,2.372,1.418,12.556,12.556,0,0,1,2.653,3.118,23.331,23.331,0,0,1,1.161,2.127,4.34,4.34,0,0,1,.5,2.445,2.041,2.041,0,0,1-.538,1.1,2.335,2.335,0,0,1-1.064.575,3.093,3.093,0,0,1-2.274-.306,5.171,5.171,0,0,1-1.577-1.455,11.928,11.928,0,0,1-.99-1.638,22.646,22.646,0,0,0-1.357-2.445c-.183-.269-.355-.465-.465-.6a2.106,2.106,0,0,0-.159-.2Z" transform="translate(61.72 -148.298)" fill="#eb996e"/>
            <path id="Path_157" data-name="Path 157" d="M212.008,218.81a73.335,73.335,0,0,0-7.507.391,4.035,4.035,0,0,1-2.127-.183c-.526-.257-.721-1.577-.856-2.14l9.194-1.43" transform="translate(62.233 -146.217)" fill="#ffbe9d"/>
            <path id="Path_158" data-name="Path 158" d="M210.754,215.448a3.8,3.8,0,0,0-.709.061l-1.956.269-6.553.966H201.4v.147c.1.416.183.88.33,1.333a2.36,2.36,0,0,0,.245.538,1.1,1.1,0,0,0,.183.232.977.977,0,0,0,.269.171,2.848,2.848,0,0,0,1.088.2c.721,0,1.382-.1,2.017-.147,1.223-.11,2.445-.208,3.374-.269s1.736-.086,2.286-.11a5.608,5.608,0,0,0,.831,0,4.513,4.513,0,0,0-.831-.061h-2.3c-.966,0-2.115.11-3.387.208-.636,0-1.308.134-1.981.122a2.445,2.445,0,0,1-.99-.183c-.293-.1-.428-.44-.55-.77a12.874,12.874,0,0,1-.318-1.308l-.11.159c2.592-.4,4.89-.782,6.529-1.064l1.944-.342A4.523,4.523,0,0,0,210.754,215.448Z" transform="translate(62.191 -146.217)" fill="#eb996e"/>
            <path id="Path_159" data-name="Path 159" d="M213.788,216.366l-9.573,1.834a6.112,6.112,0,0,1-2.054.159,2.091,2.091,0,0,1-1.638-1.1,2.14,2.14,0,0,1,.892-2.445,6.761,6.761,0,0,1,2.677-.9,57.378,57.378,0,0,0,8.558-2.384" transform="translate(61.834 -147.648)" fill="#ffbe9d"/>
            <path id="Path_160" data-name="Path 160" d="M212.672,211.5a1.222,1.222,0,0,0-.281.073l-.795.257c-.685.208-1.675.526-2.91.856s-2.726.709-4.389,1.039a8.781,8.781,0,0,0-2.592.758,2.7,2.7,0,0,0-1.064,1,2.164,2.164,0,0,0-.318,1.492,1.87,1.87,0,0,0,.929,1.223,2.909,2.909,0,0,0,1.418.354,17.25,17.25,0,0,0,2.653-.4l4.438-.88,2.983-.611.807-.183.281-.086a1.063,1.063,0,0,0-.293,0l-.819.134-3,.526-4.45.831a16.289,16.289,0,0,1-2.6.379,2.592,2.592,0,0,1-1.284-.318,1.589,1.589,0,0,1-.795-1.039,1.883,1.883,0,0,1,.281-1.3,2.506,2.506,0,0,1,.954-.9,8.617,8.617,0,0,1,2.519-.746c1.663-.342,3.154-.734,4.389-1.088s2.225-.709,2.9-.954l.77-.306Z" transform="translate(61.789 -147.658)" fill="#eb996e"/>
            <path id="Path_161" data-name="Path 161" d="M196.188,216.792a2.224,2.224,0,0,0,.5.611,4.341,4.341,0,0,0,1.687.868,4.231,4.231,0,0,0,1.9.073c.477-.1.746-.232.734-.269a7.066,7.066,0,0,1-2.555-.061A6.651,6.651,0,0,1,196.188,216.792Z" transform="translate(60.289 -145.726)" fill="#eb996e"/>
            <path id="Path_162" data-name="Path 162" d="M158.231,266.421s23.229,4.291,24.843,4.731,8.253,3.57,8.558,5.575a58.938,58.938,0,0,1,0,7.922s-1.223.966-1.932-.966a19.671,19.671,0,0,1-.624-5.758l-3.668-1.418,2.005,3.57.33,8.363s-2.567-.232-3.069-2.237a19.709,19.709,0,0,1-.489-4.23L181.5,279.7l2.017,2.726.672,6.015s-1.956.636-2.58-.7a20.955,20.955,0,0,1-.66-5.318l-7.58-2.653-5.013,2.8-5.441-2.983a5.942,5.942,0,0,1-2.959-4.071Z" transform="translate(46.444 -127.624)" fill="#ffbe9d"/>
            <path id="Path_163" data-name="Path 163" d="M124.246,186.863l.77,40.529a12.617,12.617,0,0,0,11.945,12.361h0a12.617,12.617,0,0,0,13.265-12.764c0-3.863-.122-7.018-.122-7.018s9.854-1.015,10.49-10.783c.355-5.648,0-18.51-.281-28.364a12.837,12.837,0,0,0-12.226-12.4l-5.905-.306a18.131,18.131,0,0,0-17.936,18.742Z" transform="translate(34.044 -163.479)" fill="#ffbe9d"/>
            <path id="Path_164" data-name="Path 164" d="M146.539,207.225a23.706,23.706,0,0,1-12.532-4.426s2.775,7.336,12.58,6.9Z" transform="translate(37.608 -150.83)" fill="#eb996e"/>
            <path id="Path_165" data-name="Path 165" d="M150.446,184.586c-.171.183-1.223-.66-2.7-.734s-2.641.624-2.788.428.11-.4.611-.734a3.912,3.912,0,0,1,2.25-.562,3.668,3.668,0,0,1,2.14.819C150.4,184.17,150.544,184.513,150.446,184.586Z" transform="translate(41.587 -158.06)" fill="#263238"/>
            <path id="Path_166" data-name="Path 166" d="M139.119,186.869a1.394,1.394,0,0,1-1.418,1.345,1.357,1.357,0,0,1-1.382-1.333,1.394,1.394,0,0,1,1.418-1.345,1.345,1.345,0,0,1,1.382,1.333Z" transform="translate(38.451 -157.127)" fill="#263238"/>
            <path id="Path_167" data-name="Path 167" d="M149.143,186.869a1.394,1.394,0,0,1-1.418,1.345,1.345,1.345,0,0,1-1.382-1.333,1.394,1.394,0,0,1,1.418-1.345,1.345,1.345,0,0,1,1.382,1.333Z" transform="translate(42.108 -157.127)" fill="#263238"/>
            <path id="Path_168" data-name="Path 168" d="M139.817,184.2c-.183.171-1.223-.672-2.7-.746s-2.641.624-2.8.428.122-.4.624-.721a3.79,3.79,0,0,1,2.25-.575,3.668,3.668,0,0,1,2.14.819C139.768,183.78,139.9,184.11,139.817,184.2Z" transform="translate(37.704 -158.207)" fill="#263238"/>
            <path id="Path_169" data-name="Path 169" d="M141.83,195.879a10.012,10.012,0,0,1,2.445-.318c.379,0,.758-.073.831-.33a2.042,2.042,0,0,0-.2-1.149l-1-2.983a50.434,50.434,0,0,1-2.152-7.776,50.566,50.566,0,0,1,2.775,7.58c.33,1.051.636,2.042.941,3a2.189,2.189,0,0,1,.11,1.516.966.966,0,0,1-.66.538,2.444,2.444,0,0,1-.648,0,10,10,0,0,1-2.445-.073Z" transform="translate(40.435 -157.934)" fill="#263238"/>
            <path id="Path_170" data-name="Path 170" d="M138.6,193.115c.257,0,.171,1.638,1.5,2.861s3.081,1.137,3.081,1.369-.4.293-1.137.281a4.108,4.108,0,0,1-2.58-1.051,3.668,3.668,0,0,1-1.149-2.445C138.293,193.494,138.488,193.1,138.6,193.115Z" transform="translate(39.179 -154.363)" fill="#263238"/>
            <path id="Path_171" data-name="Path 171" d="M140.311,180.114c-.171.391-1.651.122-3.436.245s-3.215.526-3.435.147c-.1-.171.171-.55.77-.917a5.807,5.807,0,0,1,2.58-.758,5.722,5.722,0,0,1,2.653.452C140.078,179.576,140.384,179.918,140.311,180.114Z" transform="translate(37.394 -159.578)" fill="#263238"/>
            <path id="Path_172" data-name="Path 172" d="M150,180.633c-.281.33-1.3-.086-2.543-.159s-2.311.11-2.531-.269c-.1-.171.086-.5.562-.807a3.668,3.668,0,0,1,4.083.342C150,180.108,150.1,180.474,150,180.633Z" transform="translate(41.581 -159.536)" fill="#263238"/>
            <path id="Path_173" data-name="Path 173" d="M128.188,187.434c-.159-.086-6.614-2.335-6.749,4.352s6.651,5.453,6.651,5.306S128.188,187.434,128.188,187.434Z" transform="translate(33.023 -156.592)" fill="#ffbe9d"/>
            <path id="Path_174" data-name="Path 174" d="M125.6,193.892a1.478,1.478,0,0,1-.318.171,1.222,1.222,0,0,1-.868,0,2.9,2.9,0,0,1-1.223-2.616,4,4,0,0,1,.355-1.663,1.357,1.357,0,0,1,.9-.88.587.587,0,0,1,.672.33c.086.2,0,.33.086.342s.147-.11.1-.391a.807.807,0,0,0-.257-.428.929.929,0,0,0-.648-.183,1.675,1.675,0,0,0-1.223,1.015,3.826,3.826,0,0,0-.44,1.858,3.044,3.044,0,0,0,1.638,2.934,1.32,1.32,0,0,0,1.076-.159C125.589,194.076,125.626,193.9,125.6,193.892Z" transform="translate(33.495 -156.021)" fill="#eb996e"/>
            <path id="Path_175" data-name="Path 175" d="M123.883,194.262a3.546,3.546,0,0,1,3.13,1.822c.379.978.428,2.066.807,3.044a2.36,2.36,0,0,0,2.347,1.7,2.066,2.066,0,0,0,1.479-1.455,5.771,5.771,0,0,0,.134-2.152c-.245-3.142-.734-6.272-.7-9.426a16.028,16.028,0,0,1,2.445-8.986,8.778,8.778,0,0,1,8.045-3.986c2.066.269,3.912,1.455,5.966,1.858a8.179,8.179,0,0,0,6.847-1.919c.245-.208,1.32-.844,1.32-.844a3.814,3.814,0,0,0-.6-2.1c-3.9-4-11.223-5.441-16.7-4.352a19.488,19.488,0,0,0-13.326,9.573c-2.592,4.952-2.262,12.043-1.223,17.226" transform="translate(33.625 -163.848)" fill="#263238"/>
            <path id="Path_176" data-name="Path 176" d="M148.585,171.316c-3.668.134-10.771,1.5-13.693,3.778-.342.269-.721.709-.489,1.088s.575.293.9.281a50.956,50.956,0,0,1,10.05,1.528,17.569,17.569,0,0,0,6.529.99,6.419,6.419,0,0,0,5.331-3.423l.941.355a10.893,10.893,0,0,0-9.573-4.6Z" transform="translate(37.726 -162.322)" fill="#263238"/>
            <path id="Path_177" data-name="Path 177" d="M160.676,178.213a12.483,12.483,0,0,0-7.274-3.325c-8.46-.77-22.349,1.773-29.709,16.309a33.413,33.413,0,0,1-1.492-7.751c0-1.993,1.223-13.84,13.449-17.508C135.674,165.938,154.086,159.006,160.676,178.213Z" transform="translate(33.301 -164.72)" fill="#455a64"/>
            <g id="Group_12" data-name="Group 12" transform="translate(155.502)" opacity="0.3">
              <path id="Path_178" data-name="Path 178" d="M160.676,178.213a11.9,11.9,0,0,0-8.142-3.753c-7.58-.367-21.909,3.032-28.841,16.737a33.413,33.413,0,0,1-1.492-7.751c0-1.993,1.223-13.84,13.449-17.508C135.674,165.938,154.086,159.006,160.676,178.213Z" transform="translate(-122.201 -164.72)"/>
            </g>
            <path id="Path_179" data-name="Path 179" d="M124.137,188.946c3.668-6.113,9.169-10.331,15.1-14s15.7-7.25,22.435-9.011a14.671,14.671,0,0,1,6.186-.611,5.563,5.563,0,0,1,4.56,3.766c.636,2.543-3.888,6.431-6.015,7.959a63.233,63.233,0,0,1-6.113,3.594s-.245-4.548-7.776-5.538C142.256,173.761,123.819,189.2,124.137,188.946Z" transform="translate(34.006 -164.535)" fill="#455a64"/>
            <path id="Path_180" data-name="Path 180" d="M134.375,169.739a36.1,36.1,0,0,1,6.969-2.445,37.438,37.438,0,0,1,7.336-.4,6.5,6.5,0,0,0-2.152-.391,19.44,19.44,0,0,0-10.319,2.005,6.969,6.969,0,0,0-1.834,1.235Z" transform="translate(37.742 -164.095)" fill="#fff"/>
            <path id="Path_181" data-name="Path 181" d="M158.778,409.235l.073,1.149s20.784,6.932,21.261,10.612l-40.3,1.541-.245-12.874a23.938,23.938,0,0,0,19.207-.428Z" transform="translate(39.637 -75.531)" fill="#455a64"/>
            <g id="Group_13" data-name="Group 13" transform="translate(179.392 343.557)" opacity="0.6">
              <path id="Path_182" data-name="Path 182" d="M139.766,419.9l-.061-3.093,38.61-.355s1.834.685,1.712,1.907Z" transform="translate(-139.705 -416.455)" fill="#fff"/>
            </g>
            <path id="Path_183" data-name="Path 183" d="M154.754,410.184c0,.183-.966.306-1.9.954s-1.394,1.455-1.589,1.394,0-1.223,1.223-1.932S154.791,410.012,154.754,410.184Z" transform="translate(43.881 -75.233)" fill="#263238"/>
            <path id="Path_184" data-name="Path 184" d="M157.651,411.278c.061.183-.77.526-1.394,1.357s-.758,1.675-.954,1.675-.391-1.064.4-2.078S157.639,411.095,157.651,411.278Z" transform="translate(45.312 -74.812)" fill="#263238"/>
            <path id="Path_185" data-name="Path 185" d="M159.035,415.657c-.183,0-.513-.892-.073-1.944s1.345-1.492,1.43-1.345-.44.734-.795,1.6S159.23,415.657,159.035,415.657Z" transform="translate(46.63 -74.398)" fill="#263238"/>
            <path id="Path_186" data-name="Path 186" d="M174.589,364.3l-6.822-22.74-9.084-28.951.5-14.9-15.209-10.478c-9.94.171-38.9-1.54-38.9-1.54s.746,15.111,2.237,25.992a14.084,14.084,0,0,0,2.335,6.015l13.339,19.451,22.936,42.791s1.528,15.282,2.164,28.486c.709,14.793,3.093,41.568,3.093,41.568l23.6.562,1.479-59.272C176.851,382.385,177.511,372.739,174.589,364.3Z" transform="translate(27.054 -120.595)" fill="#263238"/>
            <path id="Path_187" data-name="Path 187" d="M166.715,342.764c2.714,2.2,5.147,32.118.672,29.941l5.318,5.025,14.231-2.445,1.968-31.433Z" transform="translate(49.538 -99.777)" fill="#ffbe9d"/>
            <path id="Path_188" data-name="Path 188" d="M142.9,277.251s58.954,16.04,65.067,28.731a23.975,23.975,0,0,1,3.3,13.779c-.355,8.558-5.22,70.091-5.22,70.091l-22.263-1.467-2.14-22.7-.367-34.367,1.553-3.912a10.929,10.929,0,0,1-5.172-.061c-2.531-.746-40.945-12.373-40.945-12.373l-15-23.645Z" transform="translate(33.125 -123.673)" fill="#263238"/>
            <path id="Path_189" data-name="Path 189" d="M187.445,365.64v1.223s20.882,9.328,20.882,13.351l-42.07-1.761,1.149-13.974a24.122,24.122,0,0,0,20.038,1.161Z" transform="translate(49.372 -91.856)" fill="#455a64"/>
            <g id="Group_14" data-name="Group 14" transform="translate(215.666 283.235)" opacity="0.6">
              <path id="Path_190" data-name="Path 190" d="M166.285,375.617l.269-3.362,40.236,2.922s1.834.892,1.565,2.2Z" transform="translate(-166.285 -372.255)" fill="#fff"/>
            </g>
            <path id="Path_191" data-name="Path 191" d="M182.905,366.4c0,.208-1.051.257-2.091.868s-1.614,1.467-1.8,1.369.171-1.223,1.443-1.981S182.966,366.208,182.905,366.4Z" transform="translate(54.009 -91.238)" fill="#263238"/>
            <path id="Path_192" data-name="Path 192" d="M185.83,367.834c0,.208-.856.514-1.6,1.357s-.966,1.748-1.223,1.736-.281-1.223.648-2.213S185.842,367.638,185.83,367.834Z" transform="translate(55.425 -90.663)" fill="#263238"/>
            <path id="Path_193" data-name="Path 193" d="M186.766,372.7c-.183,0-.428-1,.147-2.1s1.553-1.516,1.638-1.345-.538.758-1,1.663S186.974,372.7,186.766,372.7Z" transform="translate(56.775 -90.128)" fill="#263238"/>
            <path id="Path_194" data-name="Path 194" d="M175.9,305.632a7.569,7.569,0,0,0-1.932,1.284,23.413,23.413,0,0,0-3.9,4.035,23.008,23.008,0,0,0-2.812,4.89,7.335,7.335,0,0,0-.709,2.213,46.462,46.462,0,0,1,3.937-6.749,45.9,45.9,0,0,1,5.416-5.673Z" transform="translate(49.476 -113.321)" fill="#455a64"/>
            <path id="Path_195" data-name="Path 195" d="M171.1,302.209a9.268,9.268,0,0,0-1.345,2.213,30.137,30.137,0,0,0-3.118,12.03,9.842,9.842,0,0,0,.11,2.58,18.22,18.22,0,0,0,.257-2.555,39.835,39.835,0,0,1,1.051-6.113,39.123,39.123,0,0,1,2.005-5.832,21.162,21.162,0,0,0,1.039-2.323Z" transform="translate(49.495 -114.57)" fill="#455a64"/>
            <path id="Path_196" data-name="Path 196" d="M140.962,295.813c.159,0,2.824,7.336,5.942,16.383s5.514,16.53,5.343,16.591-2.824-7.274-5.942-16.383S140.79,295.874,140.962,295.813Z" transform="translate(40.142 -116.903)" fill="#455a64"/>
            <path id="Path_197" data-name="Path 197" d="M147.544,217.573l9.622-3.863,25.1,13.632L172.02,250.791l-22.092-10.967Z" transform="translate(42.546 -146.85)" fill="#455a64"/>
            <path id="Path_198" data-name="Path 198" d="M172.808,216.262l-15.258-5.771s-3.338,7.054-10.637,4.89-15.344-8.668-15.344-8.668-13.876,5.5-18.107,8.008-6.516,67.536-6.516,67.536L105.8,307.419l-.685,4.744a55.447,55.447,0,0,0-.452,6.847c25.858,5.807,51.422-.342,65.128-7.947,0,0,1.809-1.418,1.027-4.658s-2.445-3.8-2.445-3.8l.342-28.438,2.543-29.086Z" transform="translate(26.903 -149.403)" fill="#455a64"/>
            <path id="Path_199" data-name="Path 199" d="M184.52,283.991l-34.331-14.207-21.273-47.107-18.926,7.947s20.32,51.08,28.205,55.323,40.407,6.2,40.407,6.2Z" transform="translate(28.848 -143.58)" fill="#ffbe9d"/>
            <path id="Path_200" data-name="Path 200" d="M112.992,212.836s-7.152,3.582-7.14,17.275c0,11.9,3.509,30.858,3.509,30.858l33.695-11.725-10.417-24.207C130.194,219.266,124.765,208.654,112.992,212.836Z" transform="translate(27.338 -147.517)" fill="#455a64"/>
            <path id="Path_201" data-name="Path 201" d="M111.271,259.614a4.238,4.238,0,0,1,.562-.245l1.651-.636,6.2-2.25,21.334-7.543-.183.391c-1.064-3.2-2.225-6.626-3.5-10.111-2.005-5.489-4.1-10.637-6.235-15.221a37.569,37.569,0,0,0-3.435-6.235,11.432,11.432,0,0,0-4.56-4,17.373,17.373,0,0,0-8.742-1.479,8.021,8.021,0,0,0-2.335.636,5.708,5.708,0,0,1-.758.416s0-.061.171-.147a2.956,2.956,0,0,1,.526-.379,7.042,7.042,0,0,1,2.36-.77,17.116,17.116,0,0,1,8.962,1.308,11.908,11.908,0,0,1,4.8,4.108,36.825,36.825,0,0,1,3.533,6.3c2.188,4.585,4.291,9.781,6.309,15.246,1.223,3.5,2.445,6.92,3.472,10.135l.1.293-.281.1-21.408,7.336-6.26,2.078-1.687.538a2.283,2.283,0,0,1-.6.134Z" transform="translate(29.315 -147.506)" fill="#263238"/>
            <path id="Path_202" data-name="Path 202" d="M164.045,277.708a14.026,14.026,0,0,1-1.675,1.345,24.164,24.164,0,0,1-2.066,1.43c-.844.513-1.761,1.161-2.849,1.736s-2.274,1.223-3.607,1.858S151.1,285.3,149.57,285.9a64.4,64.4,0,0,1-10.27,2.8,63.24,63.24,0,0,1-10.6.856,37.22,37.22,0,0,1-4.646-.257,38.81,38.81,0,0,1-4.01-.514c-1.223-.171-2.311-.452-3.277-.66s-1.773-.44-2.445-.648a12.152,12.152,0,0,1-2.03-.7,14.839,14.839,0,0,1,2.091.452c.672.171,1.479.379,2.445.538s2.042.428,3.264.562,2.555.367,4,.44,2.971.159,4.6.2a64.723,64.723,0,0,0,10.49-.9,65.525,65.525,0,0,0,10.184-2.714c1.5-.6,2.959-1.125,4.255-1.748s2.519-1.223,3.668-1.773,2.03-1.149,2.873-1.651a24.6,24.6,0,0,0,2.115-1.333A13.273,13.273,0,0,1,164.045,277.708Z" transform="translate(29.687 -123.507)" fill="#263238"/>
            <rect id="Rectangle_34" data-name="Rectangle 34" width="9.426" height="4.462" transform="translate(184.453 94.331)" fill="#fff"/>
            <path id="Path_203" data-name="Path 203" d="M154.83,223.69c.183,0-.171,6.9-.77,15.356s-1.223,15.331-1.406,15.319.171-6.9.77-15.356S154.622,223.677,154.83,223.69Z" transform="translate(44.392 -143.21)" fill="#263238"/>
            <rect id="Rectangle_35" data-name="Rectangle 35" width="89.054" height="19.452" transform="translate(29.086 112.108)" fill="#f9ca6d"/>
            <rect id="Rectangle_36" data-name="Rectangle 36" width="100.999" height="77.892" transform="translate(23.144 131.767)" fill="#f9ca6d"/>
            <path id="Path_204" data-name="Path 204" d="M80.734,338.679c-.11,0-.208-17.361-.208-38.781s.1-38.781.208-38.781.2,17.361.2,38.781S80.844,338.679,80.734,338.679Z" transform="translate(18.1 -129.558)" fill="#263238"/>
            <rect id="Rectangle_37" data-name="Rectangle 37" width="12.788" height="12.788" transform="translate(107.833 191.943)" fill="#f5f5f5"/>
            <rect id="Rectangle_38" data-name="Rectangle 38" width="11.468" height="16.627" transform="translate(53.892 131.767)" fill="#fff" opacity="0.3"/>
            <rect id="Rectangle_39" data-name="Rectangle 39" width="11.468" height="16.627" transform="translate(53.953 193.044)" fill="#fff" opacity="0.3"/>
            <rect id="Rectangle_40" data-name="Rectangle 40" width="25.308" height="78.32" transform="translate(98.835 131.559)" opacity="0.3"/>
            <path id="Path_205" data-name="Path 205" d="M125.828,261.355c0,.183-22.5.318-50.236.318s-50.249-.134-50.249-.318,22.5-.318,50.249-.318S125.828,261.184,125.828,261.355Z" transform="translate(-2.028 -129.588)" fill="#263238"/>
            <rect id="Rectangle_41" data-name="Rectangle 41" width="24.929" height="19.317" transform="translate(93.211 112.108)" opacity="0.3"/>
            <path id="Path_206" data-name="Path 206" d="M76.51,265.955a70.785,70.785,0,0,1-.318-9.4,70.627,70.627,0,0,1,.318-9.4,68.232,68.232,0,0,1,.318,9.4,68.377,68.377,0,0,1-.318,9.4Z" transform="translate(16.505 -134.652)" fill="#263238"/>
            <rect id="Rectangle_42" data-name="Rectangle 42" width="12.532" height="5.893" transform="translate(55.237 112.108)" fill="#fff"/>
            <path id="Path_207" data-name="Path 207" d="M65.82,252.985a.832.832,0,0,1,0-.281l.1-.844c.086-.721.245-1.8.538-3.179a32.7,32.7,0,0,1,4.414-11,25.031,25.031,0,0,1,2.445-3.142,13.131,13.131,0,0,1,3.228-2.861,3.863,3.863,0,0,1,2.311-.538,2.592,2.592,0,0,1,1.944,1.528,8.2,8.2,0,0,1,.11,4.89,18.51,18.51,0,0,1-5.367,8.9,49.247,49.247,0,0,1-9.1,6.48l-.452.269-.183.11-.171-.122a76.238,76.238,0,0,1-8.558-7.067,29.648,29.648,0,0,1-6.113-8.338,9.563,9.563,0,0,1-.868-2.335,3.851,3.851,0,0,1,.208-2.445,2.641,2.641,0,0,1,1.9-1.565,3.325,3.325,0,0,1,2.286.611,9.523,9.523,0,0,1,1.638,1.467c.489.514.941,1.039,1.382,1.553a36.482,36.482,0,0,1,2.347,3.118A38.1,38.1,0,0,1,64.9,248.78a29.61,29.61,0,0,1,.721,3.105l.122.819a2.442,2.442,0,0,1,0,.281.741.741,0,0,0-.086-.269l-.183-.807c-.159-.709-.416-1.748-.831-3.056a39.978,39.978,0,0,0-5.123-10.392,36.482,36.482,0,0,0-2.347-3.056c-.44-.513-.892-1.027-1.382-1.516a8.861,8.861,0,0,0-1.565-1.382,2.763,2.763,0,0,0-1.9-.513,2.042,2.042,0,0,0-1.479,1.223c-.624,1.32,0,2.922.672,4.328a29.5,29.5,0,0,0,6.04,8.253,75.605,75.605,0,0,0,8.473,6.993h-.355l.452-.269a49.015,49.015,0,0,0,8.986-6.394,17.85,17.85,0,0,0,5.233-8.558,7.7,7.7,0,0,0,0-4.56,2.054,2.054,0,0,0-1.553-1.223,3.264,3.264,0,0,0-1.968.465,13.155,13.155,0,0,0-3.13,2.726,25.68,25.68,0,0,0-2.445,3.069,33.634,33.634,0,0,0-4.56,10.783c-.318,1.357-.513,2.445-.648,3.142l-.147.819Z" transform="translate(6.961 -140.499)" fill="#263238"/>
            <path id="Path_208" data-name="Path 208" d="M126.461,286.59c0,.171-22.642.318-50.554.318s-50.554-.147-50.554-.318,22.63-.318,50.554-.318S126.461,286.407,126.461,286.59Z" transform="translate(-2.025 -120.383)" fill="#263238"/>
            <path id="Path_209" data-name="Path 209" d="M61.817,345.861c-.171,0-.318-22.276-.318-49.747s.147-49.76.318-49.76.318,22.276.318,49.76S62,345.861,61.817,345.861Z" transform="translate(11.16 -134.943)" fill="#263238"/>
          </g>
        </g>
      </g>
    </g>
  </g>
</svg>
